<svg id="Layer_1" data-name="Layer 1" xmlns="http://www.w3.org/2000/svg" viewBox="0 0 284.22 281.37"><defs><style>.cls-1{fill:#5bd999;}</style></defs><title>i_doctor</title><path class="cls-1" d="M471.23,343.52c0-13.46-.76-27,2.83-40.19,3.26-12,8.79-22.59,18.81-30.44,16.81-13.17,39.11-10,52,7.19,8.77,11.75,11.83,25.15,12,39.4,0,3.76.79,5.73,4.66,7.32a29.49,29.49,0,0,1,18.3,28.88,30.33,30.33,0,0,1-21.21,27.5c-14.38,4.75-30.7-2.79-36.86-17-6.07-14-.32-31.36,13.48-38,5.11-2.47,6.34-5.48,5.73-10.41-1-7.93-1.66-15.87-5.83-23-10.67-18.3-29.72-18.21-40.46.17-5.83,10-7.14,21-7.45,32.21-.36,12.82.25,25.68-.38,38.49-.84,16.86-3.32,33.5-12.18,48.37-9.24,15.5-23.13,23.5-41.06,24.39-9.17.46-18.32.29-27-3.36-19.93-8.35-28.63-24.85-32.43-44.82-.93-4.88-1.29-9.88-1.82-14.83-.17-1.57-.22-2.85-2.27-3.2-21.39-3.67-33.65-19-44.61-35.63-8.45-12.83-14.79-26.79-20.13-41.19-1-2.67-2.36-5.4,1.7-7,2-.76,1.23-2.51.78-3.88a234.9,234.9,0,0,1-11.18-50.53c-1.12-11.27-1.71-22.66.83-33.81,3.3-14.5,13.21-23.94,25.57-31.06,8.19-4.72,17.22-7,26.63-7.7,2-.16,4.48.56,4.76-2.83.13-1.55,1.78-1.21,2.87-1.22,4.83,0,9.67,0,14.5,0,2,0,3.21.61,3.07,2.82,0,.33,0,.67,0,1-.47,4.57,2.13,11.74-1.09,13.19-5,2.26-11.71.82-17.69.85-1.86,0-1.95-1.53-1.89-2.9.1-2.09-.65-3.09-2.9-2.86-16.23,1.68-30.2,7.56-40.39,21-5,6.58-6.43,14.2-6.76,22.06-1,23.78,4.33,46.56,11.43,69,.47,1.5.75,3.73,3.15,2.83,4-1.5,4.45,1.45,5.36,3.92,6.18,16.79,13.79,32.83,24.85,47a71.89,71.89,0,0,0,10.44,10.72c12.21,10.31,37.57,9.73,50.87-7.36,11.93-15.33,20.57-32.19,27.36-50.18,1-2.68,1.5-5.64,5.72-4.18,2,.69,2.29-1.47,2.75-2.81a212.25,212.25,0,0,0,10-42.14A158.84,158.84,0,0,0,457.43,211c-.93-17.19-10.27-27.84-24.51-35.46-7-3.76-14.71-5.13-22.49-6.11-1.82-.23-3.52-.11-3.29,2.38.29,3.13-1.48,3.63-4,3.42-1-.08-2,0-3,0-15,0-14.93,0-13.2-15.21.26-2.27,1.22-2.75,3.17-2.71,3.5.07,7-.16,10.49.07,2.6.17,6.14-1.68,7,3.16.25,1.39,2.69.7,4.13.84,20.51,2,37.39,10.27,48.44,28.36,4.29,7,5.4,15,5.68,23,.85,24.43-4.51,47.88-11.74,71-.71,2.26-1.77,4.3,1.69,5.37,1.94.6,1.92,2.4,1.23,4.19-8.9,23.3-19.25,45.74-37.27,63.71C412,364.69,403,370.11,392.17,372c-2,.35-3.51.55-3.4,3.14.59,14.08,2.93,27.57,13.49,38,16.35,16.22,48.17,11.52,59.24-8.7,5.13-9.36,7.14-19.63,8.49-30.06C471.32,364.18,471.22,353.85,471.23,343.52Zm94.87,11c.06-9.55-7.15-17.06-16.46-17.16-9-.1-16.73,7.74-16.72,17a16.68,16.68,0,0,0,16.29,16.8A16.44,16.44,0,0,0,566.1,354.56Z" transform="translate(-295.59 -157.12)"/></svg>