<svg id="Layer_1" data-name="Layer 1" xmlns="http://www.w3.org/2000/svg" viewBox="0 0 331.23 351.26"><defs><style>.cls-1{fill:none;stroke:#5bd999;stroke-width:16px;}.cls-1,.cls-2{stroke-miterlimit:10;}.cls-2{fill:#5bd999;stroke:#fff;stroke-width:2px;}</style></defs><title>poly</title><path class="cls-1" d="M117.71,237.61V197.75h39.63v-39.7h39.87v39.58H237v39.85H197.32v39.69H157.47V237.61Z" transform="translate(-11.73 -9.67)"/><path class="cls-2" d="M336.44,141q-34.59-29-69.13-58.09l-80-67.27C179.38,9,175.38,9,167.58,15.56Q93.51,77.81,19.42,140a20.63,20.63,0,0,0-6.69,9.6v5.95c.57,1.56,1.08,3.15,1.73,4.66,2.69,6.2,6.95,9.49,13.07,9.45,8.66-.06,17.32,0,26.36,0v4.6q0,83.22,0,166.45c0,1.61,0,3.23.08,4.83.55,7.95,4.95,13.25,11.8,14.21a30.24,30.24,0,0,0,4.17.17H284.7a35,35,0,0,0,3.85-.12c7.15-.79,11.73-6.24,12.23-14.52.09-1.48.07-3,.07-4.46q0-83.22,0-166.45v-4.72c8.75,0,17.18,0,25.62,0s13.5-4.88,15.18-14.21A14.23,14.23,0,0,0,336.44,141ZM289.72,139c-1,5.72-4.07,9-8.86,9.51v168h0q0,2.27,0,4.54c0,1.25,0,2.51-.06,3.75-.42,7-4.29,11.56-10.31,12.23a29.47,29.47,0,0,1-3.25.1H86.35a25.48,25.48,0,0,1-3.52-.14c-5.77-.8-9.47-5.27-9.94-12-.09-1.35-.07-2.71-.07-4.07s0-3,0-4.45h0V148.38c-3.11-.61-5.36-2.73-6.89-6.2-.45-1-.79-2.1-1.19-3.15v-4a14,14,0,0,1,4.58-6.49q50.7-42,101.34-84.15c5.34-4.43,8.07-4.42,13.46.06l54.75,45.49q23.64,19.64,47.28,39.28A9.56,9.56,0,0,1,289.72,139Z" transform="translate(-11.73 -9.67)"/></svg>